<svg xmlns="http://www.w3.org/2000/svg" version="1.1" xmlns:xlink="http://www.w3.org/1999/xlink" xmlns:svgjs="http://svgjs.dev/svgjs" width="1000" height="1000"><g clip-path="url(#SvgjsClipPath1182)"><rect width="1000" height="1000" fill="#000000"></rect><g transform="matrix(2.793296089385475,0,0,2.793296089385475,0,135.47486033519556)"><svg xmlns="http://www.w3.org/2000/svg" version="1.1" xmlns:xlink="http://www.w3.org/1999/xlink" xmlns:svgjs="http://svgjs.dev/svgjs" width="358" height="261"><svg width="358" height="261" viewBox="0 0 358 261" fill="none" xmlns="http://www.w3.org/2000/svg">
<path d="M107.6 2.13342C58.5332 10.9334 19.3332 46.0001 4.39987 94.2668C1.06653 105.2 0.799866 107.733 0.799866 130C0.666533 150.8 1.06653 155.333 3.59987 164C15.9999 207.067 48.2665 241.067 89.3332 254.4C133.6 268.8 182.4 258.267 217.867 226.533L225.733 219.467L221.333 215.867L216.933 212.133L209.067 219.067C192.533 233.733 176.133 242 154.267 246.933C136.8 250.8 112.133 249.867 95.9999 244.667C63.0665 234.133 37.9999 213.2 23.4665 184.133C-11.6001 113.867 29.0665 29.8668 106 13.7334C111.067 12.6668 121.867 11.8668 130 11.8668C160.533 11.8668 189.733 23.6001 212 44.8001L216.8 49.3334L221.2 45.6001L225.6 41.8668L217.867 34.6668C188.4 7.73343 146 -4.79991 107.6 2.13342Z" fill="#D80032"></path>
<path d="M104 59.4667C98 62.1333 91.2 68.6667 87.6 75.3333C84.6667 80.5333 84.6667 82 84.2667 142.267L83.8667 204H93.2H102.667V146C102.667 84.1333 102.933 80.6667 109.067 77.4667C114 74.8 121.2 75.7333 124.667 79.3333L128 82.5333V143.333V204H137.333H146.667V142.267C146.667 72.5333 146.8 74.2667 136 64.9333C127.067 57.3333 114.133 55.0667 104 59.4667Z" fill="white"></path>
<path d="M157.333 117.067C157.333 183.867 157.466 184.934 166.266 194C168.933 196.8 173.6 200.134 176.533 201.467C186.266 205.867 201.2 204.134 208.266 197.734C210.533 195.734 210.8 195.734 213.2 197.867C223.866 207.467 247.466 204.934 256.4 193.067C264.133 183.067 264 183.867 264 118V57.3336H254.666H245.333V117.467V177.6L241.466 181.467C235.333 187.467 225.866 186.134 222 178.8C220.266 175.334 220 166.534 220 116V57.3336H210.666H201.333V117.2V177.2L198.133 180.934C193.866 185.867 184.4 186.267 179.733 181.6L176.666 178.534L176.266 118L175.866 57.3336H166.666H157.333V117.067Z" fill="white"></path>
<path d="M274.667 130.667V204H284.4C304 204 320.4 196.933 335.467 182C352.667 164.933 359.733 143.733 356.267 119.6C354 103.6 347.6 91.3333 334.8 78.5333C320.133 63.8667 304.533 57.3333 284.4 57.3333H274.667V130.667ZM308 81.0667C316.933 85.2 328 96.4 332.8 106C343.2 127.333 339.2 152.133 322.4 169.2C315.2 176.533 302 184 296.4 184H293.333V130V76L297.067 76.8C299.067 77.3333 304 79.2 308 81.0667Z" fill="white"></path>
</svg></svg></g></g><defs><clipPath id="SvgjsClipPath1182"><rect width="1000" height="1000" x="0" y="0" rx="100" ry="100"></rect></clipPath></defs></svg>