<?xml version="1.0" standalone="no"?>
<!DOCTYPE svg PUBLIC "-//W3C//DTD SVG 20010904//EN"
 "http://www.w3.org/TR/2001/REC-SVG-20010904/DTD/svg10.dtd">
<svg version="1.0" xmlns="http://www.w3.org/2000/svg"
 width="512.000000pt" height="512.000000pt" viewBox="0 0 512.000000 512.000000"
 preserveAspectRatio="xMidYMid meet">

<g transform="translate(0.000000,512.000000) scale(0.100000,-0.100000)"
fill="#000000" stroke="none">
<path d="M4571 5106 c-48 -26 -63 -84 -36 -135 19 -39 35 -44 143 -51 l92 -5
-870 -870 -870 -870 -562 562 c-369 368 -572 564 -590 568 -15 4 -37 4 -50 0
-27 -8 -1792 -1767 -1814 -1807 -21 -41 -17 -74 15 -110 24 -27 36 -33 70 -33
l41 0 853 853 c469 468 857 852 862 852 6 0 262 -252 570 -560 589 -589 589
-589 646 -560 13 7 435 422 937 924 l912 911 0 -88 c0 -98 13 -136 55 -155 34
-16 60 -15 94 2 47 25 51 49 51 286 0 237 -4 261 -51 286 -39 20 -462 20 -498
0z"/>
<path d="M3894 3246 l-34 -34 0 -1506 0 -1506 -100 0 -100 0 0 1111 c0 1019
-1 1113 -17 1139 -9 16 -27 33 -40 39 -16 7 -165 11 -449 11 l-426 0 -34 -34
-34 -34 0 -1116 0 -1116 -100 0 -100 0 0 1346 c0 1238 -1 1348 -17 1374 -9 16
-27 33 -40 39 -16 7 -165 11 -449 11 l-426 0 -34 -34 -34 -34 0 -1351 0 -1351
-100 0 -100 0 0 791 c0 720 -1 793 -17 819 -9 16 -27 33 -40 39 -16 7 -165 11
-449 11 l-426 0 -34 -34 -34 -34 0 -796 0 -796 -90 0 c-100 0 -135 -11 -156
-51 -27 -52 -8 -115 41 -137 38 -17 4972 -17 5010 0 29 13 55 55 55 88 0 33
-26 75 -55 88 -14 7 -66 12 -115 12 l-90 0 0 1501 c0 1382 -1 1503 -17 1529
-9 16 -27 33 -40 39 -16 7 -165 11 -449 11 l-426 0 -34 -34z m766 -1606 l0
-1440 -300 0 -300 0 0 1440 0 1440 300 0 300 0 0 -1440z m-2400 -155 l0 -1285
-300 0 -300 0 0 1285 0 1285 300 0 300 0 0 -1285z m1200 -235 l0 -1050 -300 0
-300 0 0 1050 0 1050 300 0 300 0 0 -1050z m-2400 -320 l0 -730 -300 0 -300 0
0 730 0 730 300 0 300 0 0 -730z"/>
</g>
</svg>
