<?xml version="1.0" standalone="no"?>
<!DOCTYPE svg PUBLIC "-//W3C//DTD SVG 20010904//EN"
 "http://www.w3.org/TR/2001/REC-SVG-20010904/DTD/svg10.dtd">
<svg version="1.0" xmlns="http://www.w3.org/2000/svg"
 width="512.000000pt" height="512.000000pt" viewBox="0 0 512.000000 512.000000"
 preserveAspectRatio="xMidYMid meet">

<g transform="translate(0.000000,512.000000) scale(0.100000,-0.100000)"
fill="#000000" stroke="none">
<path d="M292 5104 c-113 -30 -221 -125 -264 -232 l-23 -57 0 -2255 0 -2255
23 -57 c27 -67 103 -155 166 -192 102 -59 -41 -56 2366 -56 2402 0 2265 -3
2363 55 49 28 115 95 145 146 55 91 52 -31 52 2359 0 2407 3 2264 -56 2366
-37 63 -125 139 -192 166 l-57 23 -2235 2 c-1915 2 -2243 0 -2288 -13z m4554
-179 c30 -19 60 -49 79 -79 l30 -49 3 -319 3 -318 -2400 0 -2401 0 0 303 c1
324 4 346 54 411 14 19 49 46 78 60 l52 26 2226 -2 2227 -3 49 -30z m112
-2763 l-3 -1839 -30 -49 c-19 -30 -49 -60 -79 -79 l-49 -30 -2237 0 -2237 0
-49 30 c-30 19 -60 49 -79 79 l-30 49 -3 1839 -2 1838 2400 0 2400 0 -2 -1838z"/>
<path d="M3196 4785 c-47 -17 -100 -66 -129 -120 -28 -52 -29 -155 -3 -205 47
-89 119 -134 216 -134 138 0 239 99 240 235 0 165 -166 281 -324 224z m141
-167 c50 -47 12 -138 -57 -138 -19 0 -40 9 -55 25 -73 73 37 184 112 113z"/>
<path d="M3830 4785 c-89 -40 -144 -127 -144 -225 0 -137 96 -234 234 -234
138 0 240 99 240 234 0 90 -53 175 -133 217 -45 23 -153 27 -197 8z m144 -166
c55 -43 18 -139 -54 -139 -19 0 -40 9 -55 25 -73 72 28 178 109 114z"/>
<path d="M4481 4787 c-48 -19 -108 -72 -133 -120 -29 -55 -31 -156 -4 -207 56
-108 172 -161 283 -129 65 18 147 97 163 159 41 153 -61 300 -214 307 -33 1
-76 -3 -95 -10z m138 -173 c43 -55 8 -134 -59 -134 -19 0 -40 9 -55 25 -52 51
-15 135 59 135 25 0 40 -7 55 -26z"/>
<path d="M2762 3350 c-12 -5 -27 -20 -32 -32 -6 -13 -118 -531 -250 -1153
-231 -1084 -240 -1131 -226 -1162 24 -52 100 -58 130 -10 10 16 423 1923 492
2274 5 27 1 37 -24 63 -31 31 -51 35 -90 20z"/>
<path d="M1405 2550 c-318 -182 -584 -338 -591 -348 -16 -20 -18 -56 -4 -82
14 -27 1161 -680 1194 -680 32 0 76 40 76 69 0 54 -17 65 -526 356 -277 158
-504 290 -504 294 0 3 227 136 505 294 278 159 510 297 515 307 6 10 10 28 10
40 0 27 -52 80 -78 80 -10 0 -279 -149 -597 -330z"/>
<path d="M3069 2851 c-16 -16 -29 -36 -29 -45 0 -52 14 -61 524 -352 278 -158
506 -291 506 -295 0 -5 -227 -137 -505 -296 -396 -226 -507 -293 -515 -314
-22 -52 14 -109 68 -109 26 0 1144 632 1180 667 13 14 22 34 22 53 0 20 -8 39
-22 51 -37 33 -1160 669 -1181 669 -10 0 -32 -13 -48 -29z"/>
</g>
</svg>
