<?xml version="1.0" standalone="no"?>
<!DOCTYPE svg PUBLIC "-//W3C//DTD SVG 20010904//EN"
 "http://www.w3.org/TR/2001/REC-SVG-20010904/DTD/svg10.dtd">
<svg version="1.0" xmlns="http://www.w3.org/2000/svg"
 width="512.000000pt" height="512.000000pt" viewBox="0 0 512.000000 512.000000"
 preserveAspectRatio="xMidYMid meet">

<g transform="translate(0.000000,512.000000) scale(0.100000,-0.100000)"
fill="#000000" stroke="none">
<path d="M560 4991 c-85 -26 -146 -79 -181 -156 -18 -38 -19 -115 -19 -1681 0
-1632 0 -1641 20 -1659 28 -25 76 -23 103 4 l22 22 3 1274 2 1275 2230 0 2230
0 0 -1532 c0 -1520 0 -1533 -20 -1566 -40 -66 71 -62 -1685 -62 -1582 0 -1595
0 -1615 -20 -27 -27 -26 -81 1 -106 21 -19 62 -19 1643 -19 l1621 0 47 23 c26
13 66 44 87 69 77 87 72 -82 69 2043 l-3 1905 -22 40 c-12 23 -42 60 -66 82
-86 79 106 73 -2296 72 -1180 0 -2157 -4 -2171 -8z m4351 -164 c57 -39 59 -46
59 -339 l0 -268 -2230 0 -2230 0 0 270 c0 301 3 319 63 345 27 12 371 14 2168
15 l2136 0 34 -23z"/>
<path d="M3824 4587 c-54 -47 -24 -127 47 -127 66 0 95 88 43 129 -34 27 -57
26 -90 -2z"/>
<path d="M4164 4598 c-22 -10 -44 -47 -44 -72 0 -7 9 -25 21 -40 15 -19 30
-26 55 -26 69 0 99 76 49 125 -26 27 -47 30 -81 13z"/>
<path d="M4493 4600 c-70 -29 -45 -140 32 -140 38 0 75 37 75 75 0 49 -59 85
-107 65z"/>
<path d="M922 4583 c-7 -3 -19 -18 -28 -35 -13 -25 -13 -35 -3 -59 6 -17 20
-34 30 -39 11 -6 450 -10 1167 -10 1148 0 1149 0 1176 21 34 27 36 77 3 107
l-23 22 -1155 -1 c-635 0 -1160 -3 -1167 -6z"/>
<path d="M2321 3575 c-191 -42 -353 -129 -489 -263 -165 -162 -256 -363 -282
-619 -14 -131 -54 -259 -117 -373 -44 -80 -86 -124 -693 -735 -702 -706 -691
-694 -726 -841 -59 -251 88 -511 336 -596 85 -29 229 -31 310 -4 127 43 138
53 800 711 349 348 657 647 683 665 67 45 200 105 272 124 34 8 106 20 160 26
372 40 656 236 806 554 55 117 80 220 86 355 13 248 -33 364 -153 391 -83 19
-98 9 -365 -256 -172 -171 -259 -249 -290 -263 -85 -39 -211 -20 -277 42 -71
66 -95 201 -52 289 14 27 112 134 260 283 131 132 243 250 249 262 6 12 11 46
11 76 0 95 -60 156 -173 176 -86 15 -278 13 -356 -4z m362 -150 c9 -4 17 -14
17 -23 0 -9 -107 -124 -238 -257 -261 -262 -284 -294 -300 -413 -24 -177 67
-346 226 -420 51 -24 69 -27 167 -27 168 0 176 5 478 304 181 180 250 242 258
234 30 -30 38 -242 15 -353 -36 -168 -101 -286 -225 -411 -155 -155 -308 -221
-566 -245 -84 -7 -211 -43 -302 -84 -166 -75 -202 -108 -873 -775 -718 -714
-675 -679 -830 -679 -71 -1 -94 4 -142 26 -80 37 -149 105 -184 181 -25 53
-29 74 -29 147 1 154 -34 112 675 825 358 360 646 658 673 696 102 145 167
307 187 466 38 301 90 426 242 581 110 112 235 184 386 222 62 16 103 19 212
16 74 -1 143 -6 153 -11z"/>
<path d="M1600 2008 c-26 -8 -184 -160 -638 -612 -660 -658 -638 -633 -630
-745 8 -110 88 -191 198 -199 111 -8 82 -33 728 612 347 346 602 608 615 631
41 77 25 186 -37 253 -50 56 -161 84 -236 60z m103 -147 c27 -11 52 -60 43
-88 -3 -10 -266 -278 -584 -596 -525 -524 -580 -577 -610 -577 -42 0 -72 30
-72 73 0 29 51 83 583 615 320 320 590 582 599 582 9 0 28 -4 41 -9z"/>
<path d="M3662 3334 c-30 -21 -31 -83 -1 -110 20 -18 45 -19 512 -22 340 -2
500 1 518 8 25 11 49 46 49 74 0 7 -9 25 -21 40 l-20 26 -508 0 c-442 0 -509
-2 -529 -16z"/>
<path d="M3666 2949 c-33 -26 -36 -79 -6 -109 19 -19 33 -20 525 -20 l506 0
26 26 c20 20 24 31 19 57 -13 70 7 67 -546 67 -488 0 -498 0 -524 -21z"/>
<path d="M3662 2564 c-30 -21 -31 -83 -1 -110 20 -18 40 -19 296 -19 l275 0
19 24 c25 30 24 76 -1 101 -19 19 -33 20 -293 20 -230 0 -276 -2 -295 -16z"/>
</g>
</svg>
