<svg width="227" height="143" viewBox="0 0 227 143" fill="none" xmlns="http://www.w3.org/2000/svg">
<g id="Group">
<path id="Vector" d="M63.0181 0.36069C42.8697 2.22409 23.2857 14.1588 11.822 31.5949C-3.94066 55.5973 -3.94066 87.1421 11.822 111.056C21.8528 126.274 38.0062 137.41 55.2887 141.003C62.8009 142.556 68.3157 142.911 74.7424 142.334C91.634 140.826 104.661 135.014 117.341 123.257C121.118 119.796 128.37 110.701 128.37 109.459C128.37 109.281 127.719 108.749 126.937 108.305L125.504 107.418L124.028 109.68C108.656 132.574 80.1703 143.532 53.6821 136.789C28.0189 130.222 8.95606 109.059 4.39661 82.0843C3.48472 76.5828 3.48472 66.1122 4.39661 60.6108C8.95606 33.547 28.236 12.1623 53.8992 5.72907C65.884 2.71213 80.4308 3.46636 91.8946 7.6812C103.532 11.9848 115.734 21.1687 122.291 30.4857C125.808 35.5435 125.417 35.233 126.981 34.2569C127.762 33.8132 128.37 33.2808 128.37 33.059C128.37 31.9498 121.726 23.5645 117.992 19.9708C106.007 8.39108 91.938 1.95789 75.3937 0.405056C69.9658 -0.127345 68.3157 -0.127344 63.0181 0.36069Z" fill="#D80032"/>
<path id="Vector_2" d="M36.197 38.8925C35.068 39.2031 32.4192 40.9334 31.5073 41.9538C31.1165 42.4418 30.3783 43.7285 29.9007 44.7933C29.0322 46.701 28.9888 47.6328 28.9888 67.0654V87.3854H32.0284H35.068V67.376V47.3665L36.3273 46.0799C38.1511 44.2609 40.3223 44.3052 42.0592 46.1686L43.3185 47.544V67.4647V87.3854H46.3581H49.3977V67.4647C49.3977 45.8137 49.3543 45.5475 46.9226 42.2644C44.7949 39.4249 39.9749 37.9164 36.197 38.8925Z" fill="white"/>
<path id="Vector_3" d="M52.8718 48.2097V57.8816L54.1311 60.0999C54.8259 61.3422 56.2154 62.9394 57.2576 63.6493C58.9945 64.8916 59.3419 64.9803 63.2066 64.9803H67.2884L67.1147 71.1916C66.8976 77.8023 66.3765 79.7544 64.5527 80.7749C63.2934 81.4404 60.992 80.908 59.863 79.6657C59.0814 78.8227 58.8208 77.8467 58.6471 75.6727L58.3866 72.7445H55.6509H52.8718V76.1607C52.8718 80.3756 53.7837 82.5939 56.3023 84.7679C59.4722 87.563 63.2934 88.0954 67.0712 86.2763C69.503 85.1672 71.457 82.6383 72.4992 79.3995C72.8031 78.3791 73.0637 71.3247 73.1505 58.1922L73.3676 38.5821H70.2846H67.2015V46.435C67.2015 50.7829 66.9844 55.0865 66.7673 55.9738C66.2028 58.0147 64.9001 58.9908 62.8592 58.9908C60.8183 58.9908 59.5156 58.0147 58.9511 55.9738C58.734 55.0865 58.5169 50.7829 58.5169 46.435V38.5821H55.6943H52.8718V48.2097Z" fill="white"/>
<path id="Vector_4" d="M76.3201 62.9837V87.3854H84.7876H93.2552V84.2797V81.174H87.8272H82.3559L82.4862 78.1571L82.6164 75.1845L84.9179 75.0514L87.1759 74.9183V72.0788V69.2394L84.9179 69.1063L82.6164 68.9732L82.4862 56.861L82.3993 44.7933H87.8272H93.2552V41.6876V38.5819H84.7876H76.3201V62.9837Z" fill="white"/>
<path id="Vector_5" d="M96.729 62.9393V87.3854H99.7686H102.808V81.3959C102.808 75.9831 102.895 75.4063 103.59 75.4063C104.979 75.4507 107.932 77.0923 109.669 78.867C111.319 80.5529 113.23 84.6346 113.23 86.498C113.23 87.2966 113.534 87.3854 116.269 87.3854C119.787 87.3854 119.83 87.341 118.658 82.7269C117.789 79.3994 115.705 75.7613 113.447 73.7204L111.667 72.1676L113.881 69.9049C121.35 62.2738 121.003 50.561 113.056 43.1073C109.669 39.9129 106.89 38.8481 101.419 38.6707L96.729 38.4932V62.9393ZM105.414 45.4588C108.323 46.5236 110.451 48.5201 111.971 51.7145C113.23 54.2878 113.317 54.8202 113.143 57.6153C112.796 62.3182 110.06 66.3555 105.978 68.0858C102.635 69.5499 102.808 70.2154 102.808 56.7723C102.808 50.1617 102.982 44.7933 103.199 44.7933C103.416 44.7933 104.372 45.1038 105.414 45.4588Z" fill="white"/>
<path id="Vector_6" d="M122.783 62.9837V87.3854H125.823H128.862V62.9837V38.5819H125.823H122.783V62.9837Z" fill="white"/>
<path id="Vector_7" d="M148.837 58.8576V79.1776L149.879 81.4846C151.008 83.9692 153.397 86.0544 156.089 86.9861C158.434 87.7404 162.255 87.2523 164.383 85.877L166.206 84.7234L168.03 85.9213C169.593 86.9861 170.245 87.1636 173.154 87.1636C176.107 87.1636 176.715 87.0305 178.626 85.8326C180.97 84.3241 182.447 82.372 183.142 79.8874C183.402 78.9114 183.576 70.3486 183.576 58.4139V38.582H180.536H177.497V58.1034C177.497 79.5769 177.497 79.6212 174.935 80.7304C173.241 81.4403 171.634 80.9966 170.288 79.5325L169.246 78.379V58.5027V38.582H166.206H163.167V58.1034C163.167 79.5325 163.167 79.6212 160.605 80.7304C158.825 81.4403 156.827 80.9079 155.785 79.3994C154.96 78.2015 154.916 77.4916 154.916 58.3696V38.582H151.877H148.837V58.8576Z" fill="white"/>
<path id="Vector_8" d="M187.049 62.9837V87.3854H195.3H203.55V84.2797V81.174H198.339H193.129V78.0684V74.9627H195.517H197.905V72.0788V69.195H195.517H193.129V56.9941V44.7933H198.339H203.55V41.6876V38.5819H195.3H187.049V62.9837Z" fill="white"/>
<path id="Vector_9" d="M207.024 63.0282V87.4742L212.148 87.2968C217.967 87.1193 220.008 86.4094 223.047 83.3925C225.653 80.8192 226.695 78.4234 226.912 74.4748C227.129 70.3043 226.304 67.4205 224.09 64.8028L222.526 62.9394L223.655 61.7415C225.826 59.3901 226.782 56.8168 226.955 52.8682C227.086 49.4519 226.999 48.9639 225.74 46.3463C223.047 40.8004 219.052 38.5821 211.584 38.5821H207.024V63.0282ZM217.837 46.0357C221.006 48.3871 221.875 52.602 219.921 56.1069C218.835 58.0591 216.143 59.8781 214.319 59.8781H213.103V52.2914V44.6603L214.927 44.9265C215.926 45.0596 217.229 45.5476 217.837 46.0357ZM217.229 67.1099C218.184 67.6423 219.4 68.7958 219.964 69.6388C221.354 71.6797 221.18 75.8058 219.66 77.9798C218.531 79.6213 215.839 81.1742 214.189 81.1742H213.103V73.6318V66.0895H214.319C214.971 66.0895 216.273 66.5331 217.229 67.1099Z" fill="white"/>
<path id="Vector_10" d="M121.767 96.743C120.117 98.3402 120.769 100.337 123.157 101.18C123.939 101.446 124.937 102.023 125.328 102.422C125.936 103.132 125.328 104.197 125.328 104.197C125.328 104.197 123.852 105.395 122.115 104.507C120.595 103.709 119.944 104.374 121.333 105.35C123.461 106.903 126.891 105.749 126.891 103.487C126.891 101.801 126.501 101.357 124.156 100.292C122.462 99.5381 122.068 98.962 122.198 98.2078C122.479 97.4972 123.32 96.8159 124.416 97.1252C125.512 97.4345 126.968 97.1252 125.632 96.2993C124.286 95.5895 122.81 95.7669 121.767 96.743Z" fill="white"/>
<path id="Vector_11" d="M134.404 96.5884C132.797 97.5644 132.3 98.8265 132.3 101.92C132.3 103.93 134.708 106.06 136.445 106.06C138.833 106.06 139.484 105.395 139.484 102.954V100.736H137.965C136.088 100.736 135.948 101.712 137.444 101.712C138.79 101.89 139.007 104.019 137.747 104.729C135.489 105.971 132.976 102.954 133.622 99.8931C134.1 97.6304 135.837 96.6099 138.095 97.3642C139.267 97.7635 139.398 96.9649 138.225 96.2994C136.966 95.6339 135.967 95.6123 134.404 96.5884Z" fill="white"/>
<path id="Vector_12" d="M150.962 96.7636C149.312 98.4495 149.92 100.002 152.786 101.378C154.219 102.088 154.653 102.576 154.653 103.374C154.467 104.858 153.48 105.504 151.657 104.617C149.92 103.774 149.138 104.35 150.614 105.371C152.786 106.968 155.87 105.708 155.87 103.312C155.87 102.025 155.217 101.067 153.003 100.135C151.657 99.6031 151.25 99.1613 151.38 98.3627C151.661 97.5894 151.758 97.346 153.625 97.4347C155.797 97.9702 156.303 97.1185 154.913 96.3199C153.485 95.8881 151.917 95.7875 150.962 96.7636Z" fill="white"/>
<path id="Vector_13" d="M104.312 101.224V106.193L106.526 105.971C109.739 105.661 111.115 104.418 111.115 101.224C111.115 97.8078 109.826 96.2993 106.613 96.2993H104.312V101.224ZM109.088 98.074C110.043 99.0501 110.17 101.847 109.431 103.312C109.084 104.021 106.613 104.703 105.614 104.703C105.614 104.858 105.614 104.703 105.614 101.18V97.1867H106.917C107.655 97.1867 108.61 97.586 109.088 98.074Z" fill="white"/>
<path id="Vector_14" d="M113.43 101.18V106.06H116.253C118.468 106.06 119.075 105.927 119.075 105.395C119.075 104.907 118.554 104.729 116.904 104.729H114.733V102.954V101.18H116.47C117.425 101.18 118.207 100.958 118.207 100.736C118.207 100.47 117.425 100.218 116.47 100.218C114.777 100.218 114.733 100.248 114.733 98.7395V97.1867H116.904C119.075 97.1867 119.075 97.0378 119.075 96.816C119.075 96.5498 119.075 96.2994 116.253 96.2994H113.43V101.18Z" fill="white"/>
<path id="Vector_15" d="M141.1 100.837C141.271 105.907 141.291 105.947 141.552 105.947C141.812 105.947 141.973 105.947 141.969 101.83V98.0592L144.27 101.697C145.486 103.871 146.789 105.69 147.093 105.823C147.483 105.956 147.554 103.693 147.554 99.9663C147.554 94.1098 146.658 94.496 146.658 99.9663L146.528 103.826L144.444 99.9663C141.534 94.731 141.1 94.7144 141.1 100.837Z" fill="white"/>
<path id="Vector_16" d="M129.063 101.224C129.063 106.149 129.2 105.971 129.627 105.971C130.055 105.971 129.972 106.35 130.195 101.146C130.195 96.3992 130.279 96.2995 129.714 96.2995C129.15 96.2995 129.063 96.2995 129.063 101.224Z" fill="white"/>
</g>
</svg>
