<svg width="1677" height="1030" viewBox="0 0 1677 1030" fill="none" xmlns="http://www.w3.org/2000/svg">
<path d="M470 1.83325C375.867 10.6333 289.067 42.2332 217.333 93.6999C111.867 169.433 40.1333 276.767 12 401.167C2.93333 441.433 0 468.5 0 515.167C0 553.967 0.933333 567.033 6 598.5C28.1333 736.367 107.333 861.433 222.267 939.967C293.6 988.633 369.333 1016.9 456.667 1027.3C484.667 1030.63 544 1030.63 569.333 1027.43C675.467 1013.57 762.667 975.967 842.667 909.3C867.867 888.367 907.867 845.433 925.733 820.233L928.667 816.1L917.733 808.367L906.933 800.633L903.467 805.167C868.8 850.767 832 886.5 789.067 916.1C686.8 986.9 565.867 1015.7 444 998.367C322.133 981.033 210.667 917.433 133.467 820.9C15.8667 674.1 -6.93333 470.5 75.3333 301.833C100.4 250.5 129.2 210.1 169.333 169.833C209.467 129.7 251.733 99.5666 302.4 75.1666C352.267 51.2999 397.867 37.9666 456 30.4999C485.467 26.6333 535.733 26.3666 564 29.6999C659.867 41.2999 740.4 74.7666 816 134.367C836.933 150.9 874.133 188.1 891.333 209.833C898.8 219.3 905.467 227.7 906 228.367C906.667 229.033 912 226.1 917.867 221.833L928.667 214.233L925.733 210.1C906.267 182.5 863.067 137.033 836.133 115.567C782 72.3666 726.533 42.6333 664.267 23.2999C602 3.96659 531.067 -3.90008 470 1.83325Z" fill="#DD0733"/>
<path d="M274.333 245.967C264.6 247.833 247.667 256.9 239.667 264.767C230.2 273.7 224.467 282.1 219.933 293.433L216.333 302.5L215.933 449.567L215.533 596.5L237.933 596.233L260.333 595.833L261 452.367L261.667 309.033L265.4 303.433C271.267 294.5 278.333 290.633 289.533 290.1C301.533 289.567 308.733 293.033 315.667 302.5L320.333 309.033L320.733 452.767L321 596.5H343.667H366.333V455.433C366.333 364.1 365.8 311.433 364.867 305.967C360.333 277.433 334.733 251.167 306.333 245.833C298.067 244.233 282.733 244.367 274.333 245.967Z" fill="white"/>
<path d="M390.333 306.767C390.333 373.3 390.867 379.167 397.133 393.967C405.4 413.033 427.667 431.833 447.667 436.367C456.6 438.5 479.267 438.1 488.067 435.833C492.333 434.767 496.2 433.833 496.6 433.833C497 433.833 497 452.9 496.733 476.1C496.067 514.5 495.8 519.3 493.267 527.167C487.667 544.1 479.667 551.167 466.067 551.167C457.933 551.167 449.933 547.833 444.6 542.367C437.267 535.033 436.333 531.967 435.667 510.5L435 490.5H413H391L391.133 513.167C391.133 533.833 391.533 536.633 394.6 545.3C409.667 587.967 457.933 608.233 497.933 588.9C509.8 583.167 523.533 568.767 530.2 555.033C540.867 532.9 540.2 543.567 540.6 385.433L541.133 244.5H519.133H497.133L496.733 307.433C496.333 369.033 496.2 370.633 493.533 375.833C487 387.967 478.733 393.167 466.333 393.033C452.333 392.9 440.333 384.5 437 372.5C436.2 369.833 435.667 342.1 435.667 306.1V244.5H413H390.333V306.767Z" fill="white"/>
<path d="M565.267 420.1L565.667 595.833H627.667H689.667V573.833V551.833L650.067 551.433L610.333 551.167V529.833V508.5H627.667H645V485.833V463.167H627.667H610.333V376.5V289.833L650.067 289.567L689.667 289.167L690.067 266.767L690.333 244.5H627.667H565L565.267 420.1Z" fill="white"/>
<path d="M714.333 420.5V596.5H736.333H758.333L758.6 552.767L759 509.167L765 509.567C773.8 510.233 788.867 516.633 798.733 523.567C820.333 539.033 833.4 561.167 836.733 587.833L837.667 595.833L860.2 596.233L882.733 596.5L881.8 586.9C878.2 549.167 859.533 512.767 833.8 493.167C829.133 489.433 825.133 486.1 825.133 485.7C825 485.3 826.467 484.233 828.2 483.433C833.933 480.9 849.8 464.767 857 454.5C877.8 424.233 886.067 389.3 880.467 355.3C875.4 325.567 864.6 305.3 841.133 281.7C826.6 267.167 811.8 257.567 794.067 251.433C778.467 245.833 767.4 244.5 739.133 244.5H714.333V420.5ZM780.6 294.1C803.267 302.5 825.533 326.1 833.133 349.833C837.133 362.1 837.933 382.633 835.133 395.433C828.067 427.433 801 455.033 770.067 461.833C757.133 464.767 758.333 473.433 758.333 375.7V289.433L765.667 290.367C769.667 290.767 776.467 292.5 780.6 294.1Z" fill="white"/>
<path d="M906.6 420.1L907 595.833L929.4 596.233L951.667 596.5V420.5V244.5H929H906.333L906.6 420.1Z" fill="white"/>
<path d="M1099.67 388.767C1099.67 541.833 1099.53 538.233 1105.93 552.5C1112.47 567.033 1127.93 582.367 1142.87 589.3C1169.4 601.433 1206.73 596.5 1223.53 578.633L1226.6 575.433L1235 581.833C1256.87 598.367 1288.33 601.033 1314.33 588.233C1320.2 585.433 1326.33 580.767 1333.13 573.967C1343.4 563.833 1346.87 558.233 1352.2 544.5C1355 537.167 1355 536.367 1355.4 390.767L1355.8 244.5H1333H1310.33V386.367V528.233L1306.6 535.3C1304.33 539.833 1300.73 543.967 1297.13 546.5C1291.93 550.1 1290.47 550.5 1280.6 550.5C1270.87 550.5 1269.13 550.1 1264.07 546.767C1261 544.633 1256.87 540.5 1254.73 537.433L1251 531.833L1250.6 388.1L1250.33 244.5H1227.67H1205V384.767C1205 473.433 1204.47 526.9 1203.67 529.967C1203 532.5 1200.07 537.3 1197.4 540.5C1183 557.167 1157.8 554.233 1147.27 534.5L1144.33 529.167L1143.93 386.767L1143.67 244.5H1121.67H1099.67V388.767Z" fill="white"/>
<path d="M1379.67 420.5V596.5H1441.67H1503.67V573.833V551.167H1464.33H1425V529.833V508.5H1442.33H1459.67V485.833V463.167H1442.33H1425V376.5V289.833H1464.33H1503.67V267.167V244.5H1441.67H1379.67V420.5Z" fill="white"/>
<path d="M1529 420.5V596.767L1562.07 596.1C1598.33 595.433 1603.53 594.633 1620.33 586.633C1645.8 574.5 1666.47 550.1 1673.8 523.167C1677.13 511.3 1677.13 481.967 1673.93 469.833C1669.8 454.1 1661.93 440.367 1651.13 429.7L1641.4 419.967L1647.27 415.033C1659.13 405.3 1669.13 388.767 1673.93 371.167C1677.67 357.433 1677.27 329.433 1673.27 316.5C1665.13 290.767 1647.93 269.167 1625 256.1C1621.67 254.233 1614.2 251.033 1608.33 249.033C1597.93 245.3 1596.73 245.3 1563.4 244.767L1529 244.233V420.5ZM1601.13 294.767C1611.8 300.1 1622.33 310.767 1627.4 321.433C1630.6 328.367 1631 330.633 1631 343.833C1631 357.033 1630.6 359.167 1627.4 365.833C1617.93 385.033 1599 397.833 1580.07 397.833H1573V343.7V289.567L1582.73 289.967C1590.33 290.367 1594.33 291.433 1601.13 294.767ZM1594.73 445.967C1618.33 453.7 1632.73 475.433 1631.4 500.9C1630.07 527.7 1609.13 549.167 1583 550.9L1573 551.567V497.3V443.167H1579.67C1583.27 443.167 1590.07 444.367 1594.73 445.967Z" fill="white"/>
<path d="M843 642.633C830.6 645.833 821.133 653.033 816.867 662.5C813.133 670.5 813.533 681.7 817.667 689.833C822.067 698.5 829.533 703.833 849.533 712.5C858.2 716.233 867.533 720.767 870.333 722.5C876.733 726.5 880.2 733.7 879.267 740.9C878.333 747.967 874.867 752.5 867.533 756.233C862.467 758.9 860.2 759.3 851 758.767C842.467 758.367 838.733 757.433 832.333 754.233C827.933 751.967 823.133 748.9 821.8 747.3C818.333 743.433 817 743.7 812.067 749.7L807.667 755.033L812.6 759.033C830.733 773.967 857 777.967 875.533 768.633C879.667 766.5 884.6 763.033 886.6 760.9C900.333 746.5 898.067 721.033 882.333 710.5C879 708.233 868.2 702.9 858.333 698.5C837.267 689.3 831.8 684.9 830.733 677.033C829.133 664.633 838.333 656.5 853.8 656.5C863.933 656.5 870.867 658.5 877.8 663.3L883.4 667.167L887.667 662.367L891.8 657.567L888.867 654.233C887.133 652.5 881.933 649.167 877.267 646.9C869.933 643.3 867 642.633 857.133 642.367C850.867 642.1 844.467 642.233 843 642.633Z" fill="white"/>
<path d="M1008.07 643.833C986.2 649.967 972.067 665.967 967.133 690.233C965.933 695.833 965 703.833 965 708.1C965.133 727.033 973.4 748.9 984.467 759.033C1001.27 774.633 1028.33 778.1 1049.67 767.567C1062.87 760.9 1062.33 762.367 1062.33 732.233V705.833H1041.67H1021V712.5V719.167H1034.33H1047.67V735.833V752.633L1040.73 755.833C1032.33 759.833 1021 760.233 1010.33 757.033C1000.73 754.233 990.6 744.1 986.333 733.167C983.667 726.367 983.133 722.767 983.133 708.5C983 689.567 984.2 683.967 991.133 673.7C999.133 661.567 1008.73 656.367 1023.53 656.367C1033.53 656.233 1040.2 658.233 1046.73 663.433L1051.8 667.433L1056.33 662.233L1060.87 657.167L1056.6 653.567C1047.93 646.1 1038.87 642.633 1026.47 642.233C1019.27 641.967 1012.33 642.633 1008.07 643.833Z" fill="white"/>
<path d="M1241.27 643.7C1215 652.233 1207.67 682.367 1227.67 699.567C1230.73 702.1 1241 707.7 1250.6 711.967C1276.6 723.433 1281.4 727.567 1281.4 738.233C1281.4 760.1 1250.07 766.767 1227.53 749.833C1223.53 746.9 1219.93 744.5 1219.53 744.5C1219 744.5 1216.73 746.767 1214.47 749.567L1210.47 754.767L1214.07 758.1C1230.6 773.7 1258.2 778.1 1277.8 768.5C1292.2 761.433 1299.4 749.167 1297.93 733.833C1296.6 719.3 1290.73 712.5 1271.67 703.567C1264.73 700.367 1254.87 695.833 1249.8 693.433C1238.07 687.967 1233 682.367 1233 674.767C1233 663.433 1241.27 656.5 1254.87 656.367C1266.87 656.233 1275.4 658.9 1282.07 665.033L1285.27 667.833L1289.8 662.5L1294.33 657.167L1290.07 653.433C1281.4 646.1 1272.07 642.767 1259 642.233C1251.27 641.967 1245 642.5 1241.27 643.7Z" fill="white"/>
<path d="M595.267 644.1C594.733 644.5 594.333 673.433 594.333 708.233V771.433L619.4 770.9C640.6 770.5 645.4 769.967 651.133 767.7C673.8 758.5 684.733 740.9 685.933 711.167C687 685.833 681.8 670.367 668.067 657.833C659.267 649.833 649.533 645.967 633.667 644.367C619.4 643.033 596.467 642.767 595.267 644.1ZM643.8 659.833C652.6 662.9 659 668.767 663.533 678.233C671.933 695.3 671.933 719.033 663.667 736.1C656.067 751.567 644.467 757.833 623 757.833H610.333V707.033V656.1L624.067 656.9C631.533 657.3 640.467 658.633 643.8 659.833Z" fill="white"/>
<path d="M715.267 644.1C714.733 644.5 714.333 673.3 714.333 708.1V771.167H752.333H790.333V764.5V757.833H760.333H730.333V734.5V711.167H754.333H778.333V704.5V697.833L754.733 697.567L731 697.167L730.6 677.433L730.2 657.833H759H787.667V650.5V643.167H751.933C732.2 643.167 715.667 643.567 715.267 644.1Z" fill="white"/>
<path d="M921.933 644.1C921.4 644.5 921 673.3 921 708.1V771.167H929H937V707.167V643.167H929.933C925.933 643.167 922.333 643.567 921.933 644.1Z" fill="white"/>
<path d="M1093.93 643.967C1093.4 644.5 1093 673.433 1093 708.1V771.3L1100.73 770.9L1108.33 770.5L1108.73 739.167C1108.87 721.967 1108.47 698.5 1107.8 687.167C1107 675.833 1106.6 666.367 1106.87 666.1C1107.13 665.833 1110.33 670.9 1113.8 677.433C1117.27 683.833 1129.4 705.3 1140.73 725.167C1152.2 744.9 1162.73 763.433 1164.2 766.1C1167 771.033 1167.13 771.167 1175.4 771.167H1183.67V707.033V643.033L1176.73 643.433L1169.67 643.833V696.633V749.567L1161 733.3C1152.33 717.3 1131.53 681.033 1117.13 656.5L1109.53 643.833L1102.2 643.433C1098.2 643.167 1094.47 643.433 1093.93 643.967Z" fill="white"/>
</svg>
